<svg xmlns="http://www.w3.org/2000/svg" xmlns:xlink="http://www.w3.org/1999/xlink" viewBox="0 0 2949.17 1336.18"><defs><style>.cls-1{fill:#606060;}.cls-2{fill:url(#linear-gradient);}.cls-3{fill:url(#Gradiente_sem_nome_27);}</style><linearGradient id="linear-gradient" x1="298.69" y1="1224.51" x2="143.96" y2="768.46" gradientUnits="userSpaceOnUse"><stop offset="0" stop-color="#ff0085"/><stop offset="1" stop-color="#ffad3f"/></linearGradient><linearGradient id="Gradiente_sem_nome_27" x1="968.87" y1="1191.37" x2="333.61" y2="91.08" xlink:href="#linear-gradient"/></defs><title>Asset 8</title><g id="Layer_2" data-name="Layer 2"><g id="Camada_1" data-name="Camada 1"><path class="cls-1" d="M1621.72,716.79q-6.43,9.12-18.77,9.12t-19-6.16q-6.7-6.16-11.53-21.73l-24.13-71.33H1387.33l-25.21,64.36q-7.51,18.24-14.48,26.55a22.11,22.11,0,0,1-17.7,8.31q-10.73,0-17.16-15.55,10.73-4.29,17.16-20.92l130.34-327.17q-4.83-12.87-11.8-19.85,11.26-7,20.38-7,15.54,0,24.13,25.74L1605.63,694.8Q1611,711.44,1621.72,716.79ZM1398.06,599.33h141.06l-66-202.2Z"/><path class="cls-1" d="M1705.38,347.25v347q0,11.81,12.34,16.09-8.58,15.55-22.53,15.55-23.6,0-23.6-30.57v-346q0-11.79-12.33-17.16,6.43-15,22-15Q1705.38,317.21,1705.38,347.25Z"/><path class="cls-1" d="M1977.85,494.75q0,11.25-6.44,17.7t-14.48,6.43a41.64,41.64,0,0,1-12.87-1.61q1.61-3.74,1.61-11.26,0-33.25-44.52-33.25-35.94,0-64.36,30t-28.43,83.94q0,53.91,25.21,80.72t61.14,26.82q45.58,0,74-26.82a18.23,18.23,0,0,1,5.36,13.41q0,14.48-25.74,29.77t-57.93,15.28q-46.65,0-82.33-33.79t-35.66-97.61q0-63.82,40-105.66T1908.12,447q32.72,0,51.23,14.21T1977.85,494.75Z"/><path class="cls-1" d="M2062.59,337.6q11.79,0,19.31,6.7t7.51,18.5q0,11.81-9.93,20.92t-22.25,9.12q-12.35,0-20.12-7.24t-7.77-19.31q0-12.07,10.72-20.38T2062.59,337.6Zm16.09,140V694.27q0,11.81,12.34,16.09-8.59,15.55-22.53,15.55-23.61,0-23.6-30.57V479.19q0-12.33-12.34-16.63,7.52-15.54,22-15.55Q2078.68,447,2078.68,477.58Z"/><path class="cls-1" d="M2183,483.48Q2220.27,447,2271.23,447t87.69,37q36.73,37,36.74,102.71t-36.74,102.44q-36.74,36.75-87.69,36.74T2183,689.17q-37.29-36.72-37.28-103T2183,483.48Zm150.71,19.58q-26.55-28.69-66.5-28.7t-63,26.29q-23.07,26.28-23.07,76.69,0,63.3,27.09,92.52t67,29.24q39.95,0,62.49-26.82t22.52-76.7Q2360.26,531.75,2333.71,503.06Z"/><path class="cls-1" d="M2674.56,538.19V694.27q0,12.35,12.87,16.09-8.58,15.55-23.06,15.55-23.61,0-23.6-30.57V538.73q0-60.62-53.1-60.61-29,0-55,23.33t-36.2,60.88V694.27q0,11.81,12.34,16.09-8.6,15.55-22.53,15.55-23.61,0-23.6-30.57V479.19q0-12.33-12.34-16.63,7.51-15.54,22-15.55,24.14,0,24.14,30.57v37a129.92,129.92,0,0,1,39.69-48.27Q2561.92,447,2596.79,447t56.31,22.8Q2674.55,492.61,2674.56,538.19Z"/><path class="cls-1" d="M2800.86,669.6q24.41,26.82,67.58,26.81t71.61-26.81q6.43,3.75,6.43,12.33,0,15.57-24.4,29.77t-58.19,14.21q-53.64,0-88.77-34.59T2740,594q0-62.75,38.08-104.86t85.82-42.1q38.07,0,61.68,26.55t23.6,60.88q0,23.59-13.68,35.66t-43.71,12.61L2777,586.46v1.07Q2776.46,642.79,2800.86,669.6Zm89.31-110q22.51-1.6,22.52-26.55t-15-41.83q-15-16.89-38.62-16.9-31.65,0-54.17,24.94t-26.82,68.39Z"/><path class="cls-1" d="M1617.43,1223.66h3.22q-10.74,25.23-31.65,25.21-12.35,0-20.38-6.7t-23.06-26.55l-95.47-131.41H1397v133.56q0,12.35,12.33,16.09-8.58,15.56-23.06,15.55-23.61,0-23.6-30.57V898.64q0-12.33-12.34-17.17,11.27-18.22,41.3-18.23h83.67q62.22,0,97.62,29.23t35.4,79.11q0,49.88-30,78.58t-83.67,33.52l96,126Q1601.34,1223.67,1617.43,1223.66Zm-221-167.87h79.38q47.19,0,71.07-21.46t23.86-59.8q0-38.34-23.86-60.34t-71.07-22h-79.38Z"/><path class="cls-1" d="M1693.05,861.09q11.79,0,19.31,6.71t7.51,18.5q0,11.81-9.92,20.92t-22.26,9.12q-12.35,0-20.12-7.24t-7.77-19.31q0-12.07,10.72-20.38T1693.05,861.09Zm16.09,140v216.69q0,11.79,12.34,16.09-8.6,15.56-22.53,15.55-23.61,0-23.6-30.57V1002.69q0-12.33-12.34-16.63,7.52-15.54,22-15.55Q1709.15,970.51,1709.14,1001.08Z"/><path class="cls-1" d="M1832,1012.88q29.49-42.36,79.12-42.37t84.47,34.59q34.86,34.59,34.86,99t-37.54,104.59q-38.08,40.21-90.11,40.22t-78.84-24.94q-26.84-24.93-26.82-66.77l1.07-284.27q0-7.5-2.68-11t-9.65-6.17q8.57-15,23.06-15,23.6,0,23.6,30Zm69.73,203.81q43.44,0,68.12-29.77t24.67-79.91q0-50.15-24.41-77.5t-60.34-27.36q-52.56,0-77.77,51.49l-.53,103.52q0,29,18.23,44.25T1901.69,1216.69Z"/><path class="cls-1" d="M2131,1193.09q24.39,26.84,67.58,26.82t71.6-26.82q6.43,3.77,6.43,12.34,0,15.55-24.4,29.77T2194,1249.41q-53.64,0-88.77-34.59t-35.13-97.35q0-62.76,38.08-104.86t85.82-42.1q38.07,0,61.68,26.55t23.6,60.87q0,23.61-13.68,35.67t-43.71,12.6L2107.11,1110V1111Q2106.57,1166.27,2131,1193.09Zm89.3-109.95q22.53-1.61,22.52-26.55t-15-41.83q-15-16.9-38.62-16.9-31.65,0-54.17,24.94t-26.82,68.39Z"/><path class="cls-1" d="M2357.58,861.09q11.79,0,19.31,6.71t7.51,18.5q0,11.81-9.93,20.92t-22.26,9.12q-12.35,0-20.11-7.24t-7.78-19.31q0-12.07,10.73-20.38T2357.58,861.09Zm16.09,140v216.69q0,11.79,12.33,16.09-8.58,15.56-22.52,15.55-23.61,0-23.6-30.57V1002.69q0-12.33-12.34-16.63,7.52-15.54,22-15.55Q2373.67,970.51,2373.67,1001.08Z"/><path class="cls-1" d="M2499.17,1001.08v27.35q10.73-27.87,30.58-42.9a73.09,73.09,0,0,1,45.32-15q25.47,0,38.61,12.07t13.14,26.81q0,14.76-7.5,22c-5,4.83-10.19,7.24-15.56,7.24a45.67,45.67,0,0,1-14.48-2.14,77.6,77.6,0,0,0,1.07-14.48q0-26.28-26.81-26.28-18.79,0-37.82,19T2499.17,1074v143.75q0,11.79,12.34,16.09-8.58,15.56-22.53,15.55-23.61,0-23.6-30.57V1002.69q0-12.33-12.33-16.63,7.5-15.54,22-15.55Q2499.18,970.51,2499.17,1001.08Z"/><path class="cls-1" d="M2682.87,1007q37.27-36.47,88.23-36.47t87.69,37q36.74,37,36.74,102.71t-36.74,102.44q-36.73,36.75-87.69,36.74t-88.23-36.74q-37.29-36.74-37.28-103T2682.87,1007Zm150.71,19.58q-26.55-28.69-66.5-28.7t-63,26.28q-23.07,26.29-23.07,76.7,0,63.3,27.09,92.52t67,29.23q39.95,0,62.49-26.81t22.52-76.7Q2860.13,1055.26,2833.58,1026.56Z"/><path class="cls-2" d="M136.43,1146.2l-5.89,11.72-5.46,10.88H82.63l4.73-6.73,11.16-15.87Zm1,15.18-3.73,7.42h43.84l3.07-10.19,3.74-12.41h-39.3Zm50.07-.69-2.44,8.11h44.67l1-9.49L232,1146.2H191.88Zm91.88-14.49H239l-1.39,13.8-.88,8.8h45l-.89-8.8Zm47.09,0H286.35l1.32,13.11.95,9.49h44.67l-2.44-8.11Zm46.82,0H334l3.74,12.41,3.07,10.19h43.84l-3.72-7.42Zm46.54,0H381.93l5.89,11.72,5.46,10.88h42.45l-4.73-6.73Zm91.75,69.51H9c-7.69,0-11.83-10-6.83-16.48l70.05-90.68L40.59,892.25c-.65-4.51,1.9-8.86,5.89-10q212.69-60.27,425.37,0c4,1.13,6.53,5.45,5.9,10L447,1108.54l70.72,92.55C522.1,1206.86,518.41,1215.71,511.59,1215.71ZM97.44,1096.27H421.65l28.4-189.51-3.59-1a697.21,697.21,0,0,0-187.3-26.13A697.34,697.34,0,0,0,71.85,905.76l-3.6,1ZM470.88,1173a4.22,4.22,0,0,0-4.22-4.21H446l-8.13-11.57-7.76-11h15.19a4.22,4.22,0,0,0,0-8.43H424.22l-10.06-14.32a4.21,4.21,0,1,0-6.89,4.85l6.65,9.47H377.7l-6.83-13.62a3.86,3.86,0,0,0-6.9,3.46l5.1,10.16h-37.6l-3.9-12.93a3.6,3.6,0,1,0-6.89,2.07l3.27,10.86H285.51l-1.23-12.24a3.47,3.47,0,0,0-6.9.69l1.16,11.55H239.82l1.16-11.55a3.46,3.46,0,0,0-6.89-.69l-1.23,12.24H194.42l3.27-10.86a3.6,3.6,0,0,0-6.9-2.07l-3.89,12.93H149.29l5.1-10.16a3.85,3.85,0,1,0-6.89-3.46l-6.84,13.62H104.44l6.66-9.47a4.22,4.22,0,0,0-6.9-4.85l-10.06,14.32H72a4.22,4.22,0,1,0,0,8.43H88.22l-7.75,11-8.14,11.57H50.62a4.22,4.22,0,0,0,0,8.43H66.41L56.73,1191a4.21,4.21,0,1,0,6.89,4.85l13.09-18.62h44.14l-7.26,14.47a3.85,3.85,0,0,0,6.89,3.46l9-17.93H175l-4.56,15.16a3.6,3.6,0,0,0,2.41,4.48,3.49,3.49,0,0,0,2.17,0,3.58,3.58,0,0,0,2.31-2.37l5.19-17.24H228.9l-1.59,15.85a3.44,3.44,0,0,0,1.18,3,3.45,3.45,0,0,0,4,.4,3.45,3.45,0,0,0,1.75-2.67l1.66-16.54H282.5l1.66,16.54a3.47,3.47,0,0,0,1.75,2.67,3.41,3.41,0,0,0,2,.43,3.36,3.36,0,0,0,1.92-.83,3.47,3.47,0,0,0,1.18-3l-1.59-15.85h46.36l5.19,17.24a3.57,3.57,0,0,0,2.32,2.37,3.58,3.58,0,0,0,4-1.2,3.57,3.57,0,0,0,.62-3.25l-4.57-15.16h45.53l9,17.93a3.86,3.86,0,0,0,5.18,1.71,3.86,3.86,0,0,0,1.72-5.17l-7.27-14.47h44.14l13.09,18.62a4.21,4.21,0,0,0,6.89-4.85L452,1177.23h14.71A4.22,4.22,0,0,0,470.88,1173Zm-56.48-85.16,26.21-175C320.19,880,198.14,880,77.72,912.88l26.94,175Z"/><path class="cls-3" d="M604.68,432.37a55.88,55.88,0,0,0-20.4-15.45,74.4,74.4,0,0,0-24-6.31,88.15,88.15,0,0,0-47.06,8.67,77.29,77.29,0,0,0-20,14.13,59,59,0,0,0-13.95,20.9c-.37,1-.72,2-1,3a28.26,28.26,0,0,0-.82,3.07c-.23,1-.42,2.08-.57,3.12a27.15,27.15,0,0,0-.32,3.14,29.39,29.39,0,0,0,1.62,12.23l.24.63a1.08,1.08,0,0,0,.74.67,1.1,1.1,0,0,0,1.35-.78,44.48,44.48,0,0,1,3.55-9.07,48.13,48.13,0,0,1,5.42-8.08A63.1,63.1,0,0,1,504,449.36a99.19,99.19,0,0,1,36.45-14.2,93.89,93.89,0,0,1,39,.38A56.12,56.12,0,0,1,597.41,443a42.86,42.86,0,0,1,7.52,6.11,42,42,0,0,1,5.92,7.71,1.1,1.1,0,0,0,2-.47l.05-.67a28.71,28.71,0,0,0-1.89-12.21A40.52,40.52,0,0,0,604.68,432.37Zm191.59,11.69a55.6,55.6,0,0,0-15.61-20.26,74.45,74.45,0,0,0-21.5-12.4,88.32,88.32,0,0,0-47.68-4,77.5,77.5,0,0,0-23,8.37,59,59,0,0,0-19,16.5c-.62.87-1.22,1.74-1.77,2.66a27.76,27.76,0,0,0-1.6,2.75c-.49.93-1,1.89-1.37,2.86a26.65,26.65,0,0,0-1.13,2.94A29.43,29.43,0,0,0,662,455.72l.06.67a1.15,1.15,0,0,0,.54.85,1.12,1.12,0,0,0,1.51-.4,43.72,43.72,0,0,1,5.81-7.82,46.94,46.94,0,0,1,7.35-6.37A62.8,62.8,0,0,1,694.7,434a99.11,99.11,0,0,1,38.9-4.13,93.85,93.85,0,0,1,37.57,10.62,56.16,56.16,0,0,1,15.3,11.92,41.36,41.36,0,0,1,9.33,16.86,1.1,1.1,0,0,0,2.1.08l.23-.62a28.61,28.61,0,0,0,1.38-12.29A40.31,40.31,0,0,0,796.27,444.06ZM669.1,530.48a.47.47,0,0,0-.29-.26.5.5,0,0,0-.64.32,15.3,15.3,0,0,1-3.54,5.7,22.29,22.29,0,0,1-5.35,4.14,34.5,34.5,0,0,1-13,4.14,32.9,32.9,0,0,1-13.55-.92,19.74,19.74,0,0,1-6.06-2.91,14.21,14.21,0,0,1-4.43-5,.5.5,0,0,0-.93.09l-.11.39a12.23,12.23,0,0,0,1.66,9.44,20.37,20.37,0,0,0,7,6.82,26.16,26.16,0,0,0,8.78,3.27,29.85,29.85,0,0,0,9,.25,29.3,29.3,0,0,0,8.65-2.42,26.61,26.61,0,0,0,7.64-5.16,21.33,21.33,0,0,0,5.29-8,12.79,12.79,0,0,0,0-9.52Zm334.92,489a113.56,113.56,0,0,1-14.46-6c-64.26-31.62-116.76-77.72-159-134.76C786.06,818.71,766.19,749.69,765,675.19c-.2-12.2-1.75-13.42-12.68-8.79-37.3,15.76-75.83,26.89-116.24,30.84-31,3-61.77,2-91.78-7.34-3.73-1.17-5.26-.21-7.23,2.77-12.92,19.45-24.37,39.7-33.2,61.34-14.21,34.85-18.48,52.74-18,80.45.44,27.42,15.16,25.34,16.1,52.29v.19c-5.27,55.52-19.91,168.42-25.74,215.06-.58,4.59-.19,6.12,1.72,8.61,40.56,52.74,74,97.72,79.25,113,.9,2.64-.87,8.92-3.18,9.93-12,5.27-57.39,1-98.23,3.13a1.4,1.4,0,0,0-.94.41c-4.47,4.51-4.31,8,.82,12.3a456,456,0,0,0,62.38,44.44c40.24,23.66,91,42.13,138.25,42.35a212.39,212.39,0,0,0,60.55-8.78c52-15.09,95.64-44.42,135-80.54,51.68-47.36,93.29-102.78,128.76-163,10.27-17.44,19.91-35.21,27.83-53.89C1010.76,1024.65,1009.78,1021.4,1004,1019.48Zm-30.12,30.18c-35.45,61.87-76.25,119.79-127.52,169.74-36.2,35.25-76.21,64.94-124.55,81.79-21.12,7.35-42.81,11.64-65.27,11.49-40.73-.17-76.72-12.22-111.78-31.85-14.58-8.16-22.09-8.58-35.38-18.14a1.4,1.4,0,0,1,.62-2.55c20.85-.23,54.78-1.37,71.82-5.63,7.66-1.92,13.41-18.64,8.43-27.07-7.6-12.86-27.46-44.42-79.74-114.67a27.74,27.74,0,0,1-5.32-19.45c6.53-61.34,19.32-170.1,24.3-209.32a1.71,1.71,0,0,0,0-.32c-2.48-27.37-24.29-35.13-16.13-76.41,5.82-29.48,16.85-54.12,23.47-68,3.56-7.46,6.64-16.28,12.64-21.06,6.2-4.94,15.08,1,22.8,1.86,51.58,5.64,101.59-1.56,150.61-17.55,3.72-1.22,7.42-2.49,11.15-3.69,5.89-1.9,8.18-.5,8.69,5.53a399.06,399.06,0,0,0,11.62,66.8c18.21,70.21,54.8,129.4,107.16,179.16,32.32,30.72,66.93,58.42,106.62,79.23C981.76,1036.69,982.91,1033.93,973.9,1049.66ZM458.23,843.08c-.51-12-2.11-17.86.88-36,5.92-36,18.34-69.8,45.66-104.79,2.61-3.34,5.35-6.58,8.22-10a1.4,1.4,0,0,0-1-2.3l-.19,0a37.24,37.24,0,0,0-4.36,1.24c-21.1,7.1-41.27,16.24-59.87,28.53-39.11,25.87-67.39,57-79.88,102.92-2.61,9.6-2.17,11.56,7.71,13.15,57.8,9.27,77.71,15.59,81,15.39C459.73,849.11,458.37,846.3,458.23,843.08Zm-9.29-92.29c-3.2,9.55-6.51,17.81-8.19,26.47-2.78,14.27-3.37,25.31-4.9,38.85-.93,8.23-2.49,11.52-10.45,9.27-10-2.84-17-3-24.86-6.23-4-1.65-6.29-3.68-4.32-8.34,10.84-25.59,27.58-43.43,50.51-61.57A1.41,1.41,0,0,1,448.94,750.79Zm19.55-94.86c-34.62-19.66-63.19-46.21-87.39-77.56-14.29-18.52-26.76-38.14-32.49-61.26-4-16.25-1.15-28.13,9.09-36a1.42,1.42,0,0,1,2.21.67,303.46,303.46,0,0,0,11.63,30.33c52,114.17,159.07,176.48,288.78,156.46,61.62-9.52,114.5-37,157-82.73,54.06-58.07,76.27-127,67-205.9-2-16.84-2.45-16.78,14.79-18.06,8.71-.65,9.72.15,10.76,8.78,3.91,32.38,4.51,64.75-1.15,97-10.57,60.17-37.82,110.76-86.25,149-2.49,2-4.93,3.73-4,7.42.86,3.52,3.91,3.75,6.65,4.24,50.57,8.87,101.17,17.62,151.7,26.67,6.51,1.17,8.49-1.15,9.36-7.1a1004.84,1004.84,0,0,0,9.91-114.46c2.17-68.51-1.14-136.71-14-204.21-10.48-54.8-26.79-107.61-53.76-156.74C888,99.05,829.7,46.52,749.58,19.68,703.68,4.3,656.31-.86,608.06.11c-38,.76-75.59,4.73-112.53,13.82-51.78,12.73-98.74,35-138.44,71.23-43,39.21-70.53,88-87.67,143-21.33,68.43-25.88,138.75-22.91,209.89,3.1,74.44,15,147.58,32.12,220q11.21,47.31,26.08,93.63c2.3,7.15,4.88,8.16,11.52,4.48,2.86-1.59,5.65-3.29,8.47-4.92q71.74-41.6,143.48-83.19C475.51,663.79,475.58,660,468.49,655.93Zm376-153.27c-36,78.28-97.88,124.06-181.51,141.53a230.25,230.25,0,0,1-47,4.43c-97.13-3.48-168.72-48.72-216.35-133-7.08-12.53-12.32-25.89-16.95-39.51-1.87-5.48-1-9.3,3.88-12.95,28.06-21.11,46.51-49.41,61.05-80.92,13-28.12,24-56.84,32.22-86.69,2.41-8.82,2.7-8.92,9.31-2.86,31.55,29,69.28,46.11,110.14,57.06,37.35,10,75.59,14.38,114,17.15,35.45,2.54,70.94,1.75,106.42,1.08,10.44-.2,20.89-.47,31.3-1.17,5.78-.38,8.32,1.9,9.17,7.44C867,418.56,863.29,461.8,844.5,502.66ZM423.35,666.81q-46.56,27-93.19,54c-7.64,4.42-9.26,3.73-11.77-4.92-20.34-70.14-35.26-141.41-43.44-214-6.26-55.51-8.23-111.18-2.78-166.9,5.4-55.21,17.56-108.65,43.69-158.13C353.28,106.06,412.18,62.1,488.33,40.1,523.22,30,559,25.6,595.2,23.93c47.15-2.17,93.51,1.89,138.76,15.65,82.22,25,140.14,78.41,178.9,154,25.79,50.26,40.5,104,49.53,159.46,7.75,47.6,10.91,95.57,10.72,143.78A1104.71,1104.71,0,0,1,966.23,620c-.82,7.66-2.31,8.74-10.06,7.4l-77.8-13.49c-.64-.11-1.27-.29-1.91-.42-9.2-1.89-10.18-4.41-4.18-11.36A250.33,250.33,0,0,0,905.48,553c17-32.91,26.3-68,29.64-104.8,3.22-35.41,0-70.43-5.55-105.36-1-6.14-4-7.91-9.87-7.08-46.23,6.51-92.77,8.91-139.38,8.59-59.29-.4-118.32-4.25-176.08-19.19a342.06,342.06,0,0,1-48.07-16.49c-28.59-12.13-50.63-31.82-67.78-57.4-2.78-4.15-6.08-8-9-12-1.65-2.23-3.46-4-6.49-3.35s-4.12,2.84-4.76,5.57c-3,12.91-5.73,25.91-9.17,38.72C446.72,325.74,431,369.9,404.27,409.31c-13.89,20.48-31.19,37.13-53.8,48.25-21.68,10.66-31.08,34-25.63,60.77,5.7,28,20.3,51.65,37.32,73.95a341.1,341.1,0,0,0,62.1,62.31C431.23,660,431,662.36,423.35,666.81Zm503.39,94.45c1.22-2.75.53-5.46-.43-8.24a108.51,108.51,0,0,0-18.64-33.44C878,683.38,838,664.31,794.32,651.46c-3.88-1.13-4.4.29-4.55,3.58-.36,7.56-1,15.11-1.56,23v.19c.65,9.24.9,18.8,2.08,28.24,6.14,49.3,23.59,94.65,48.5,137.33,6,10.36,6.84,10.56,17.06,4.48C890.06,827.9,911.05,796.72,926.74,761.26Zm-66.65,55.27c-4.84,4.19-7.43,3.9-10.21-1.46-21.09-40.78-35.55-83.5-37.75-129.78a11.45,11.45,0,0,1,0-1.33,1.41,1.41,0,0,1,2-1.2c34.66,14.72,65.93,32.55,85,66.43,3.07,5.44,3.3,10,.22,15.71C888.86,784.13,876.78,802.07,860.09,816.53Zm17.45,78.87c16.06,17.47,32.32,34.75,50.86,49.68,7.67,6.18,9.45,5.82,14.88-2.12a107.25,107.25,0,0,0,12.64-25c7.66-21.78,9-44.17,6.57-67a240.25,240.25,0,0,0-17.61-67.54,1.41,1.41,0,0,0-2.59,0c-3,7-5.74,13.66-9.09,20-15,28.71-36.78,51-64.88,67.15-6.74,3.88-7.17,6.12-2.09,12.05C869.91,887,873.7,891.24,877.54,895.4Zm23.22-17.84a199.83,199.83,0,0,0,34.59-33.95,1.41,1.41,0,0,1,2.49.62c3.75,22.23,3.38,43.29-3.48,64-1.77,5.35-5.35,6.2-9.34,2.28-8.2-8.08-16.13-16.43-24.21-24.65C898.05,883.09,897.42,880.14,900.76,877.56Z"/></g></g></svg>